<svg width="32" height="32" viewBox="0 0 32 32" fill="none" xmlns="http://www.w3.org/2000/svg">
<rect width="32" height="32" fill="white" fill-opacity="0.01" style="mix-blend-mode:multiply"/>
<g clip-path="url(#clip0_8641_132763)">
<rect width="28" height="28" transform="translate(2 2)" fill="white" fill-opacity="0.01" style="mix-blend-mode:multiply"/>
<mask id="mask0_8641_132763" style="mask-type:alpha" maskUnits="userSpaceOnUse" x="2" y="2" width="28" height="28">
<g clip-path="url(#clip1_8641_132763)">
<mask id="mask1_8641_132763" style="mask-type:alpha" maskUnits="userSpaceOnUse" x="2" y="2" width="28" height="28">
<path d="M16.0175 2.88375C12.5788 2.88375 9.28 4.2225 6.83 6.6375L8.055 7.88875C10.1813 5.7975 13.0338 4.63375 16.0175 4.6425C16.875 4.6425 17.7063 4.73875 18.5025 4.9225C15.5275 5.7275 13.3225 8.44875 13.3225 11.6775C13.3225 12.36 13.4275 13.025 13.6113 13.6463C12.99 13.4625 12.3425 13.375 11.695 13.375C8.4575 13.375 5.7275 15.5888 4.93125 18.59C4.73 17.75 4.63375 16.8925 4.625 16.0263C4.625 14.1713 5.05375 12.4125 5.9025 10.7763L4.35375 9.97125C3.3825 11.8438 2.875 13.9175 2.875 16.0263C2.875 23.2625 8.76375 29.1513 16 29.1513C19.4563 29.1513 22.72 27.8212 25.1875 25.3975L23.9625 24.1462C21.8363 26.2375 18.9838 27.4013 16 27.3925C12.8062 27.3925 9.91875 26.0625 7.85375 23.945C6.94375 22.9737 6.43625 21.6962 6.43625 20.3662C6.43625 17.47 8.79 15.1162 11.6862 15.1162C14.5912 15.1162 16.9362 17.4788 16.9362 20.375C16.9362 20.6988 16.91 21.0138 16.8488 21.3288L18.5725 21.6525C18.7738 20.5675 18.7213 19.4475 18.4062 18.3887C19.0275 18.5637 19.675 18.66 20.3225 18.66C23.5688 18.66 26.2988 16.4375 27.0863 13.4363C27.2788 14.2675 27.3838 15.125 27.3838 16.0088C27.3838 17.8638 26.955 19.6225 26.1063 21.25L27.655 22.055C28.6262 20.1825 29.1338 18.1088 29.1338 16C29.1338 8.76375 23.245 2.875 16.0088 2.875L16.0175 2.88375ZM20.3313 16.91C17.435 16.91 15.0813 14.5562 15.0813 11.66C15.0813 8.76375 17.435 6.41 20.3313 6.41C23.2275 6.41 25.5813 8.76375 25.5813 11.66C25.5813 14.5562 23.2275 16.91 20.3313 16.91Z" fill="white"/>
</mask>
<g mask="url(#mask1_8641_132763)">
<rect x="4.46094" y="25.3945" width="9.03991" height="6.72705" transform="rotate(-45 4.46094 25.3945)" fill="url(#paint0_linear_8641_132763)"/>
<rect x="1.125" y="9" width="19.25" height="13.125" fill="black"/>
<rect x="1.125" y="16.3125" width="5.25" height="9.625" transform="rotate(-23.1229 1.125 16.3125)" fill="black"/>
<rect x="16" y="1.125" width="12.25" height="6.125" fill="black"/>
<rect x="13.8125" y="5.5" width="16.625" height="16.625" fill="black"/>
<rect x="12.9277" y="-0.613281" width="6.06724" height="8.20935" transform="rotate(45 12.9277 -0.613281)" fill="url(#paint1_linear_8641_132763)"/>
</g>
</g>
</mask>
<g mask="url(#mask0_8641_132763)">
<g clip-path="url(#clip2_8641_132763)">
<rect width="28" height="28" transform="translate(2 2)" fill="white" fill-opacity="0.01" style="mix-blend-mode:multiply"/>
<rect x="2" y="2" width="28" height="28" fill="#A56EFF"/>
<mask id="mask2_8641_132763" style="mask-type:alpha" maskUnits="userSpaceOnUse" x="2" y="2" width="28" height="28">
<rect x="2" y="2" width="28" height="28" fill="url(#paint2_linear_8641_132763)"/>
</mask>
<g mask="url(#mask2_8641_132763)">
<rect width="28" height="28" transform="matrix(1 0 0 -1 2 30)" fill="#0F62FE"/>
</g>
</g>
</g>
<path d="M7.25 9C8.2165 9 9 8.2165 9 7.25C9 6.2835 8.2165 5.5 7.25 5.5C6.2835 5.5 5.5 6.2835 5.5 7.25C5.5 8.2165 6.2835 9 7.25 9Z" fill="#001D6C"/>
<path d="M24.75 26.5C25.7165 26.5 26.5 25.7165 26.5 24.75C26.5 23.7835 25.7165 23 24.75 23C23.7835 23 23 23.7835 23 24.75C23 25.7165 23.7835 26.5 24.75 26.5Z" fill="#001D6C"/>
<path d="M16 29.125C13.585 29.125 11.625 27.165 11.625 24.75C11.625 22.335 13.585 20.375 16 20.375C18.415 20.375 20.375 22.335 20.375 24.75C20.375 27.165 18.415 29.125 16 29.125ZM16 22.125C14.5563 22.125 13.375 23.3063 13.375 24.75C13.375 26.1937 14.5563 27.375 16 27.375C17.4437 27.375 18.625 26.1937 18.625 24.75C18.625 23.3063 17.4437 22.125 16 22.125Z" fill="#001D6C"/>
</g>
<defs>
<linearGradient id="paint0_linear_8641_132763" x1="8.98089" y1="25.3945" x2="8.98089" y2="32.1216" gradientUnits="userSpaceOnUse">
<stop offset="0.2"/>
<stop offset="1" stop-opacity="0"/>
</linearGradient>
<linearGradient id="paint1_linear_8641_132763" x1="15.9614" y1="-0.613281" x2="15.9614" y2="7.59607" gradientUnits="userSpaceOnUse">
<stop offset="0.2"/>
<stop offset="1" stop-opacity="0"/>
</linearGradient>
<linearGradient id="paint2_linear_8641_132763" x1="2" y1="30" x2="30" y2="2" gradientUnits="userSpaceOnUse">
<stop offset="0.1" stop-opacity="0"/>
<stop offset="0.9"/>
</linearGradient>
<clipPath id="clip0_8641_132763">
<rect width="28" height="28" fill="white" transform="translate(2 2)"/>
</clipPath>
<clipPath id="clip1_8641_132763">
<rect width="26.2588" height="26.2763" fill="white" transform="translate(2.875 2.875)"/>
</clipPath>
<clipPath id="clip2_8641_132763">
<rect width="28" height="28" fill="white" transform="translate(2 2)"/>
</clipPath>
</defs>
</svg>
